<?xml version="1.0" encoding="UTF-8"?>
<svg width="17px" height="19px" viewBox="0 0 17 19" version="1.1" xmlns="http://www.w3.org/2000/svg" xmlns:xlink="http://www.w3.org/1999/xlink">
    <!-- Generator: Sketch 54.1 (76490) - https://sketchapp.com -->
    <title>Group 16</title>
    <desc>Created with Sketch.</desc>
    <g id="Silkroad-2.0" stroke="none" stroke-width="1" fill="none" fill-rule="evenodd">
        <g id="Remaining-orders" transform="translate(-1489.000000, -42.000000)">
            <g id="Group-17">
                <g id="Group-9" transform="translate(1476.272939, 41.147526)">
                    <g id="Group-10" transform="translate(0.844867, 0.630633)">
                        <g id="Group-7" transform="translate(0.519997, 0.112500)">
                            <g id="Group-16" transform="translate(12.244797, 0.544957)">
                                <path d="M8.71250078,2.85302026 C9.03350081,2.74122025 9.27410083,2.65722024 9.55350085,2.56002023 C9.30210083,2.03182018 9.16850082,1.49162013 8.51250076,1.31902012 C8.57990077,1.83542016 8.64090077,2.30302021 8.71250078,2.85302026 M7.8417007,1.45362013 C7.06010063,1.77522016 6.40190057,2.72602024 6.44590058,3.47002031 C8.26930074,3.01842027 8.32310074,3.26262029 7.8707007,1.48922013 C7.8673007,1.47582013 7.8515007,1.46542013 7.8417007,1.45362013 M7.47710067,0.837220075 C6.03450054,0.474220042 4.64110041,2.37222021 4.32310039,4.18062037 C4.60450041,4.10242037 4.86630044,4.00922036 5.13630046,3.95982035 C5.51010049,3.89122035 5.66810051,3.69462033 5.75770051,3.3144203 C5.99530054,2.30482021 6.46010058,1.42002013 7.47710067,0.837220075 M2.82150025,12.6460211 C2.70370024,13.0460212 2.56090023,13.4392212 2.48170022,13.8446212 C2.45130022,14.0004213 2.50930022,14.2534213 2.62210023,14.3446213 C3.44730031,15.0114213 4.39850039,15.3378214 5.45810049,15.1580214 C6.49530058,14.9820213 7.13950064,14.3292213 7.40090066,13.3154212 C7.69170069,12.1888211 7.46550067,11.201021 6.55150059,10.4280209 C6.25970056,10.1812209 5.93810053,9.96982089 5.6391005,9.73082087 C5.32070048,9.47662085 5.00650045,9.20702082 5.18330046,8.72922078 C5.35850048,8.25642074 5.75770051,8.14502073 6.19670055,8.18062073 C6.65090059,8.21742073 7.10070063,8.30982074 7.58590068,8.38282075 C7.69090069,8.07862072 7.7999007,7.76662069 7.90570071,7.45362067 C8.01470072,7.13142064 8.12070073,6.80782061 8.22590074,6.49062058 C7.00630063,5.99642054 5.5945005,6.14642055 4.58710041,6.83682061 C3.21970029,7.7742207 2.56910023,10.2724209 4.39190039,11.468021 C4.57050041,11.585221 4.71830042,11.7518211 4.87170044,11.9040211 C5.19530046,12.2254211 5.35850048,12.6040211 5.10490046,13.0262212 C4.82690043,13.4884212 4.37910039,13.3730212 3.98890036,13.2286212 C3.60350032,13.0862212 3.24770029,12.8630212 2.82150025,12.6460211 M10.0947009,17.8148216 C8.65430077,17.5626216 7.21210064,17.3184215 5.77350052,17.0562215 C4.05490036,16.7432215 2.33910021,16.4152215 0.622500056,16.0922214 C0.429100038,16.0558214 0.237500021,16.0100214 0.00570000051,15.9602214 C0.118500011,15.0524213 0.22430002,14.1664213 0.33910003,13.2816212 C0.658100059,10.825421 0.988300088,8.37042075 1.29810012,5.91302053 C1.39750012,5.12442046 1.40510013,5.00662045 2.17050019,4.86022043 C3.09950028,4.68242042 3.64590033,4.28222038 3.91350035,3.29782029 C4.11910037,2.54122023 4.64690042,1.85422017 5.11090046,1.19202011 C5.50110049,0.635020057 6.09550054,0.314420028 6.77490061,0.163820015 C7.23370065,0.0618200055 7.63110068,0.132020012 7.97930071,0.454820041 C8.05090072,0.521220047 8.12750073,0.592620053 8.21550073,0.629820056 C9.52490085,1.18242011 9.52550085,1.18122011 10.0995009,2.33442021 C10.3681009,2.31242021 10.636701,2.2898202 10.905301,2.2670202 C10.804901,3.85442034 10.699101,5.44162049 10.6061009,7.02962063 C10.5315009,8.30402074 10.4673009,9.57902086 10.4081009,10.854421 C10.2999009,13.1744212 10.1989009,15.4946214 10.0947009,17.8148216" id="Fill-4" fill="#9EBD5A"></path>
                                <path d="M10.0947209,17.8148416 C10.1989209,15.4946414 10.2999209,13.1744412 10.4079209,10.854441 C10.4673209,9.57904086 10.5315209,8.30404074 10.6061209,7.02964063 C10.698921,5.44164049 10.804921,3.85444034 10.905321,2.2670402 C11.058721,2.38984021 11.250721,2.48584022 11.358721,2.64044024 C11.7993211,3.27084029 12.4355211,3.41704031 13.1395212,3.4000403 C13.4963212,3.3914403 13.6575212,3.49524031 13.7137212,3.89324035 C14.2299213,7.55364068 14.7721213,11.210441 15.3091214,14.8680413 C15.3955214,15.4562414 15.4941214,16.0428414 15.5955214,16.6820415 C14.5011213,16.9196415 13.4209212,17.1618415 12.3369211,17.3872416 C11.592121,17.5420416 10.842321,17.6732416 10.0947209,17.8148416" id="Fill-6" fill="#698C49"></path>
                                <path d="M2.82158025,12.6461011 C3.24758029,12.8631012 3.60338032,13.0861012 3.98878036,13.2287012 C4.37898039,13.3731012 4.82678043,13.4885012 5.10498046,13.0261012 C5.35858048,12.6041011 5.19518046,12.2253011 4.87178044,11.9041011 C4.71838042,11.7517011 4.57058041,11.585101 4.39198039,11.467901 C2.56918023,10.2725009 3.21978029,7.7743007 4.58718041,6.83690061 C5.5945805,6.14630055 7.00618063,5.99630054 8.22598074,6.49070058 C8.12078073,6.80790061 8.01458072,7.13130064 7.90558071,7.45370067 C7.7997807,7.76670069 7.69078069,8.07870072 7.58598068,8.38290075 C7.10078063,8.30970074 6.65098059,8.21730073 6.19658055,8.18050073 C5.75778051,8.14510073 5.35858048,8.25650074 5.18338046,8.72930078 C5.00638045,9.20710082 5.32078048,9.47650085 5.6389805,9.73090087 C5.93818053,9.96990089 6.25958056,10.1813009 6.55158059,10.4281009 C7.46538067,11.200901 7.69158069,12.1889011 7.40098066,13.3155012 C7.13938064,14.3293013 6.49518058,14.9821013 5.45798049,15.1581014 C4.39838039,15.3379014 3.44718031,15.0115013 2.62218023,14.3447013 C2.50938022,14.2535013 2.45118022,14.0003013 2.48158022,13.8447012 C2.56098023,13.4393012 2.70358024,13.0461012 2.82158025,12.6461011" id="Fill-8" fill="#FDFDFC"></path>
                            </g>
                        </g>
                    </g>
                </g>
            </g>
        </g>
    </g>
</svg>